<svg xmlns="http://www.w3.org/2000/svg" xmlns:svg="http://www.w3.org/2000/svg" xmlns:xlink="http://www.w3.org/1999/xlink" id="svg2985" width="16" height="16" version="1.1"><defs id="defs2987"><linearGradient id="linearGradient3819"><stop id="stop3821" offset="0" style="stop-color:#ffffcd;stop-opacity:.84318179"/><stop id="stop3823" offset="1" style="stop-color:#fff;stop-opacity:.48636365"/></linearGradient><linearGradient id="linearGradient3810"><stop id="stop3812" offset="0" style="stop-color:#ad0000;stop-opacity:1"/><stop id="stop3814" offset="1" style="stop-color:#ffa060;stop-opacity:1"/></linearGradient><linearGradient id="linearGradient3765"><stop id="stop3767" offset="0" style="stop-color:red;stop-opacity:1"/><stop id="stop3769" offset="1" style="stop-color:#ffc889;stop-opacity:1"/></linearGradient><linearGradient id="linearGradient3771" x1="-10.394" x2="-18.027" y1="-1.818" y2="3.198" gradientTransform="matrix(0,1.4411133,-1.5948452,0,6.9905436,27.97837)" gradientUnits="userSpaceOnUse" xlink:href="#linearGradient3765"/><linearGradient id="linearGradient3796" x1="12.746" x2="1.468" y1="4.993" y2="14.335" gradientTransform="matrix(0,1.0639682,-1.1774678,0,17.768723,-0.56178173)" gradientUnits="userSpaceOnUse" xlink:href="#linearGradient3810"/><linearGradient id="linearGradient3825" x1="1.058" x2="14.058" y1="14.135" y2="5.135" gradientTransform="matrix(0,1,-1,0,16.024265,-0.0582943)" gradientUnits="userSpaceOnUse" xlink:href="#linearGradient3819"/></defs><metadata id="metadata2990"/><g id="layer1"><path id="path2995" d="M 14,6 3.5,0.5 C 0.967599,-0.60475098 0,0 0,2.5 l 0,11 c 0,3.191904 0.968288,3.086065 3.5,2 L 14,10 c 2.354935,-1.0639692 2.354935,-2.9360317 0,-4 z" style="font-size:medium;font-style:normal;font-variant:normal;font-weight:400;font-stretch:normal;text-indent:0;text-align:start;text-decoration:none;line-height:normal;letter-spacing:normal;word-spacing:normal;text-transform:none;direction:ltr;block-progression:tb;writing-mode:lr-tb;text-anchor:start;baseline-shift:baseline;color:#000;fill:url(#linearGradient3796);fill-opacity:1;fill-rule:evenodd;stroke:none;stroke-width:.44564542;marker:none;visibility:visible;display:inline;overflow:visible;enable-background:accumulate;font-family:Sans;-inkscape-font-specification:Sans"/><path id="path3802" d="M 13.7,7 2.8,1.4 C 1.9875,0.9625 1,1.025 1,2.4 l 0,11.2 c 0,1.375 0.9875,1.4375 1.8,1 L 13.7,9 c 1.3125,-0.9375 1.3125,-1.0625 0,-2 z" style="font-size:medium;font-style:normal;font-variant:normal;font-weight:400;font-stretch:normal;text-indent:0;text-align:start;text-decoration:none;line-height:normal;letter-spacing:normal;word-spacing:normal;text-transform:none;direction:ltr;block-progression:tb;writing-mode:lr-tb;text-anchor:start;baseline-shift:baseline;color:#000;fill:url(#linearGradient3825);fill-opacity:1;stroke:none;stroke-width:1;marker:none;visibility:visible;display:inline;overflow:visible;enable-background:accumulate;font-family:Sans;-inkscape-font-specification:Sans"/><path id="path22" d="M 14,8 2,14 2,2 z" style="fill:url(#linearGradient3771);fill-opacity:1;fill-rule:evenodd;stroke:none"/><g id="text3773" transform="matrix(0,1.0639682,-1.1774678,0,17.714011,-0.54784161)" style="font-size:11.42791939px;font-style:normal;font-weight:400;line-height:125%;letter-spacing:0;word-spacing:0;fill:#ffffe6;fill-opacity:.86910993;stroke:none;font-family:Sans"><path id="path3778" d="M 5.2142927,10.797757 8.0339258,5.7020761 10.853559,10.797757 z m 0,1.69856 0,-0.84928 5.6392663,0 0,0.84928 z" style="fill:#ffffe6;fill-opacity:.86910993"/></g></g></svg>