<svg xmlns="http://www.w3.org/2000/svg" xmlns:svg="http://www.w3.org/2000/svg" xmlns:xlink="http://www.w3.org/1999/xlink" id="svg2985" width="16" height="16" version="1.1"><defs id="defs2987"><linearGradient id="linearGradient3819"><stop id="stop3821" offset="0" style="stop-color:#ffffcd;stop-opacity:.84318179"/><stop id="stop3823" offset="1" style="stop-color:#fff;stop-opacity:.48636365"/></linearGradient><linearGradient id="linearGradient3810"><stop id="stop3812" offset="0" style="stop-color:#ad0000;stop-opacity:1"/><stop id="stop3814" offset="1" style="stop-color:#ffa060;stop-opacity:1"/></linearGradient><linearGradient id="linearGradient3765"><stop id="stop3767" offset="0" style="stop-color:red;stop-opacity:1"/><stop id="stop3769" offset="1" style="stop-color:#ffc889;stop-opacity:1"/></linearGradient><linearGradient id="linearGradient3771" x1="-11.721" x2="-14.692" y1="1.737" y2="-2.98" gradientTransform="matrix(1.4411133,0,0,1.5948452,28.036664,9.0337206)" gradientUnits="userSpaceOnUse" xlink:href="#linearGradient3765"/><linearGradient id="linearGradient3796" x1="14" x2="5" y1="15" y2="6" gradientTransform="matrix(1.0639682,0,0,1.1774678,-0.50348743,-1.744458)" gradientUnits="userSpaceOnUse" xlink:href="#linearGradient3810"/><linearGradient id="linearGradient3825" x1="3" x2="15" y1="3" y2="15" gradientUnits="userSpaceOnUse" xlink:href="#linearGradient3819"/></defs><metadata id="metadata2990"/><g id="layer1"><path id="path2995" d="M 5.8942615,1.8426571 0.57442089,12.439871 C -0.53033009,14.972272 0,16 2.5,16 l 11,0 c 3.191904,0 3.056041,-1.028417 1.969976,-3.560129 L 10.150135,1.8426571 c -1.0639689,-2.35493556 -3.1919052,-2.35493556 -4.2558735,0 z" style="font-size:medium;font-style:normal;font-variant:normal;font-weight:400;font-stretch:normal;text-indent:0;text-align:start;text-decoration:none;line-height:normal;letter-spacing:normal;word-spacing:normal;text-transform:none;direction:ltr;block-progression:tb;writing-mode:lr-tb;text-anchor:start;baseline-shift:baseline;color:#000;fill:url(#linearGradient3796);fill-opacity:1;fill-rule:evenodd;stroke:none;stroke-width:.44564542;marker:none;visibility:visible;display:inline;overflow:visible;enable-background:accumulate;font-family:Sans;-inkscape-font-specification:Sans"/><path id="path3802" d="m 7.0625,2.3125 -5.625,10.875 C 1,14 1,15 2.375,15 l 11.25,0 C 15,15 15,14 14.5625,13.1875 L 8.9375,2.3125 C 8,1 8,1 7.0625,2.3125 z" style="font-size:medium;font-style:normal;font-variant:normal;font-weight:400;font-stretch:normal;text-indent:0;text-align:start;text-decoration:none;line-height:normal;letter-spacing:normal;word-spacing:normal;text-transform:none;direction:ltr;block-progression:tb;writing-mode:lr-tb;text-anchor:start;baseline-shift:baseline;color:#000;fill:url(#linearGradient3825);fill-opacity:1;stroke:none;stroke-width:1;marker:none;visibility:visible;display:inline;overflow:visible;enable-background:accumulate;font-family:Sans;-inkscape-font-specification:Sans"/><path id="path22" d="M 8,2 14,14 2,14 z" style="fill:url(#linearGradient3771);fill-opacity:1;fill-rule:evenodd;stroke:none"/><g id="text3773" transform="matrix(1.0639682,0,0,1.1774678,-0.48954731,-1.6897465)" style="font-size:11.42791939px;font-style:normal;font-weight:400;line-height:125%;letter-spacing:0;word-spacing:0;fill:#ffffe6;fill-opacity:.86910993;stroke:none;font-family:Sans"><path id="path3778" d="M 7.5091975,9.9278694 7.0392586,7.380029 l 0,-1.6985603 1.8797554,0 0,1.6985603 -0.4699388,2.5478404 z m -0.4699389,2.5478406 0,-1.698561 1.8797554,0 0,1.698561 z" style="fill:#ffffe6;fill-opacity:.86910993"/></g></g></svg>