<svg xmlns="http://www.w3.org/2000/svg" xmlns:svg="http://www.w3.org/2000/svg" xmlns:xlink="http://www.w3.org/1999/xlink" id="svg2985" width="16" height="16" version="1.1"><defs id="defs2987"><linearGradient id="linearGradient3907"><stop id="stop3909" offset="0" style="stop-color:#000;stop-opacity:.22649573"/><stop id="stop3911" offset="1" style="stop-color:#002d87;stop-opacity:.82478631"/></linearGradient><linearGradient id="linearGradient3886"><stop id="stop3888" offset="0" style="stop-color:#ff3939;stop-opacity:1"/><stop id="stop3890" offset="1" style="stop-color:#a00;stop-opacity:1"/></linearGradient><linearGradient id="linearGradient3878"><stop id="stop3880" offset="0" style="stop-color:#518dd0;stop-opacity:1"/><stop id="stop3882" offset="1" style="stop-color:#45588c;stop-opacity:1"/></linearGradient><linearGradient id="linearGradient3870"><stop id="stop3872" offset="0" style="stop-color:#fff;stop-opacity:.91025639"/><stop id="stop3874" offset="1" style="stop-color:#fff;stop-opacity:.67094016"/></linearGradient><linearGradient id="linearGradient3819"><stop id="stop3821" offset="0" style="stop-color:#ffffcd;stop-opacity:.84318179"/><stop id="stop3823" offset="1" style="stop-color:#fff;stop-opacity:.48636365"/></linearGradient><linearGradient id="linearGradient3810"><stop id="stop3812" offset="0" style="stop-color:#ad0000;stop-opacity:1"/><stop id="stop3814" offset="1" style="stop-color:#ffa060;stop-opacity:1"/></linearGradient><linearGradient id="linearGradient3765"><stop id="stop3767" offset="0" style="stop-color:red;stop-opacity:1"/><stop id="stop3769" offset="1" style="stop-color:#ffc889;stop-opacity:1"/></linearGradient><linearGradient id="linearGradient3771" x1="-11.721" x2="-14.692" y1="1.737" y2="-2.98" gradientTransform="matrix(1.4411133,0,0,1.5948452,48.036664,9.0337212)" gradientUnits="userSpaceOnUse" xlink:href="#linearGradient3765"/><linearGradient id="linearGradient3796" x1="14" x2="5" y1="15" y2="6" gradientTransform="matrix(1.0639682,0,0,1.1774678,19.496513,-1.7444574)" gradientUnits="userSpaceOnUse" xlink:href="#linearGradient3810"/><linearGradient id="linearGradient3825" x1="3" x2="15" y1="3" y2="15" gradientTransform="translate(20,5.766978e-7)" gradientUnits="userSpaceOnUse" xlink:href="#linearGradient3819"/><linearGradient id="linearGradient3876" x1="6" x2="14" y1="2" y2="14" gradientUnits="userSpaceOnUse" xlink:href="#linearGradient3870"/><linearGradient id="linearGradient3884" x1="2" x2="15" y1="1" y2="15" gradientUnits="userSpaceOnUse" xlink:href="#linearGradient3878"/><linearGradient id="linearGradient3892" x1="7.039" x2="8.919" y1="5.681" y2="12.476" gradientUnits="userSpaceOnUse" xlink:href="#linearGradient3886"/><linearGradient id="linearGradient3905" x1="5" x2="13" y1="3" y2="13" gradientUnits="userSpaceOnUse" xlink:href="#linearGradient3907"/></defs><metadata id="metadata2990"/><g id="layer1"><rect id="rect3089" width="13" height="14" x="2" y="1" style="fill:url(#linearGradient3884);fill-opacity:1;stroke:none"/><rect id="rect3868" width="11" height="12" x="3" y="2" style="fill:url(#linearGradient3876);fill-opacity:1;stroke:none"/><path id="rect3859" d="M 1,3 1,4 4,4 4,3 z M 1,6 1,7 4,7 4,6 z m 0,3 0,1 3,0 0,-1 z m 0,3 0,1 3,0 0,-1 z" style="fill:#000;fill-opacity:1;stroke:none"/><path id="rect3894" d="m 5,3 0,2 8,0 0,-2 -8,0 z m 3,3 0,1 5,0 0,-1 -5,0 z m 0,2 0,1 5,0 0,-1 -5,0 z m 0,2 0,1 5,0 0,-1 -5,0 z m -3,2 0,1 8,0 0,-1 -8,0 z" style="fill:url(#linearGradient3905);fill-opacity:1;stroke:none"/><g id="text3773" transform="matrix(1.0639682,0,0,1.1774678,-2.4895473,-3.6897465)" style="font-size:11.42791939px;font-style:normal;font-weight:400;line-height:125%;letter-spacing:0;word-spacing:0;fill:url(#linearGradient3892);fill-opacity:1;stroke:none;font-family:Sans"><path id="path3778" d="M 7.5091975,9.9278694 7.0392586,7.380029 l 0,-1.6985603 1.8797554,0 0,1.6985603 -0.4699388,2.5478404 z m -0.4699389,2.5478406 0,-1.698561 1.8797554,0 0,1.698561 z" style="fill:url(#linearGradient3892);fill-opacity:1"/></g></g></svg>