<svg xmlns="http://www.w3.org/2000/svg" xmlns:svg="http://www.w3.org/2000/svg" xmlns:xlink="http://www.w3.org/1999/xlink" id="svg2" width="25" height="17" version="1.1"><defs id="defs4"><linearGradient id="linearGradient4260" x1="1.397" x2="7.613" y1="2.801" y2="6.946" gradientUnits="userSpaceOnUse" xlink:href="#linearGradient4254"/><linearGradient id="linearGradient4239" x1="2.658" x2="6.622" y1="2.26" y2="3.293" gradientUnits="userSpaceOnUse" xlink:href="#linearGradient4233"/><linearGradient id="linearGradient4228" x1="9.641" x2="5.451" y1="1.45" y2="9.198" gradientUnits="userSpaceOnUse" xlink:href="#linearGradient4222"/><linearGradient id="linearGradient4222"><stop id="stop4224" offset="0" style="stop-color:#a38300;stop-opacity:1"/><stop id="stop4226" offset="1" style="stop-color:#6c5600;stop-opacity:1"/></linearGradient><linearGradient id="linearGradient4233"><stop id="stop4235" offset="0" style="stop-color:#32ac00;stop-opacity:1"/><stop id="stop4237" offset="1" style="stop-color:#116200;stop-opacity:1"/></linearGradient><linearGradient id="linearGradient4254"><stop id="stop4256" offset="0" style="stop-color:#166500;stop-opacity:1"/><stop id="stop4258" offset="1" style="stop-color:#3a3000;stop-opacity:1"/></linearGradient><clipPath id="clipPath4146"><rect id="rect4148" width="8" height="7" x="0" y="9" style="opacity:.55979644;fill:#0060c0;fill-opacity:1;stroke:none"/></clipPath><linearGradient id="linearGradient4777" x1="13" x2="8" y1="8" y2="9" gradientTransform="translate(0,2)" gradientUnits="userSpaceOnUse" xlink:href="#linearGradient4392-6"/><linearGradient id="linearGradient4775" x1="13" x2="8" y1="8" y2="9" gradientTransform="translate(-2,-1)" gradientUnits="userSpaceOnUse" xlink:href="#linearGradient4392-6"/><linearGradient id="linearGradient4773" x1="8" x2="12" y1="8" y2="10" gradientUnits="userSpaceOnUse" xlink:href="#linearGradient4310"/><linearGradient id="linearGradient4771" x1="10" x2="12" y1="9" y2="12" gradientUnits="userSpaceOnUse" xlink:href="#linearGradient4328"/><linearGradient id="linearGradient4769" x1="6" x2="10" y1="5" y2="7" gradientUnits="userSpaceOnUse" xlink:href="#linearGradient4302"/><linearGradient id="linearGradient4767" x1="8" x2="10" y1="6" y2="9" gradientUnits="userSpaceOnUse" xlink:href="#linearGradient4320"/><linearGradient id="linearGradient4765" x1="8" x2="4" y1="11" y2="5" gradientUnits="userSpaceOnUse" xlink:href="#linearGradient4294"/><linearGradient id="linearGradient4763" x1="8" x2="10" y1="8" y2="11" gradientTransform="translate(4,0)" gradientUnits="userSpaceOnUse" xlink:href="#linearGradient4354"/><linearGradient id="linearGradient4761" x1="8" x2="10" y1="8" y2="11" gradientUnits="userSpaceOnUse" xlink:href="#linearGradient4354"/><linearGradient id="linearGradient4759" x1="8" x2="16" y1="5" y2="9" gradientUnits="userSpaceOnUse" xlink:href="#linearGradient4336"/><linearGradient id="linearGradient4757" x1="10.063" x2="12" y1="8.031" y2="11" gradientUnits="userSpaceOnUse" xlink:href="#linearGradient4344"/><linearGradient id="linearGradient4755" x1="8" x2="16" y1="8" y2="12" gradientUnits="userSpaceOnUse" xlink:href="#linearGradient4366"/><linearGradient id="linearGradient4753" x1="10" x2="16" y1="9" y2="14" gradientUnits="userSpaceOnUse" xlink:href="#linearGradient4382"/><linearGradient id="linearGradient4751" x1="4" x2="10" y1="9" y2="14" gradientUnits="userSpaceOnUse" xlink:href="#linearGradient4374"/><linearGradient id="linearGradient4707" x1="13" x2="8" y1="8" y2="9" gradientTransform="translate(0,2)" gradientUnits="userSpaceOnUse" xlink:href="#linearGradient4392-6"/><linearGradient id="linearGradient4705" x1="13" x2="8" y1="8" y2="9" gradientTransform="translate(-2,-1)" gradientUnits="userSpaceOnUse" xlink:href="#linearGradient4392-6"/><linearGradient id="linearGradient4703" x1="8" x2="12" y1="8" y2="10" gradientUnits="userSpaceOnUse" xlink:href="#linearGradient4310"/><linearGradient id="linearGradient4701" x1="10" x2="12" y1="9" y2="12" gradientUnits="userSpaceOnUse" xlink:href="#linearGradient4328"/><linearGradient id="linearGradient4699" x1="6" x2="10" y1="5" y2="7" gradientUnits="userSpaceOnUse" xlink:href="#linearGradient4302"/><linearGradient id="linearGradient4697" x1="8" x2="10" y1="6" y2="9" gradientUnits="userSpaceOnUse" xlink:href="#linearGradient4320"/><linearGradient id="linearGradient4695" x1="8" x2="4" y1="11" y2="5" gradientUnits="userSpaceOnUse" xlink:href="#linearGradient4294"/><linearGradient id="linearGradient4693" x1="8" x2="10" y1="8" y2="11" gradientTransform="translate(4,0)" gradientUnits="userSpaceOnUse" xlink:href="#linearGradient3781"/><linearGradient id="linearGradient4691" x1="8" x2="10" y1="8" y2="11" gradientUnits="userSpaceOnUse" xlink:href="#linearGradient3769"/><linearGradient id="linearGradient4689" x1="8" x2="16" y1="5" y2="9" gradientUnits="userSpaceOnUse" xlink:href="#linearGradient3763"/><linearGradient id="linearGradient4687" x1="10.063" x2="12" y1="8.031" y2="11" gradientUnits="userSpaceOnUse" xlink:href="#linearGradient3775"/><linearGradient id="linearGradient4685" x1="8" x2="16" y1="8" y2="12" gradientUnits="userSpaceOnUse" xlink:href="#linearGradient4366"/><linearGradient id="linearGradient4683" x1="10" x2="16" y1="9" y2="14" gradientUnits="userSpaceOnUse" xlink:href="#linearGradient4382"/><linearGradient id="linearGradient4681" x1="4" x2="10" y1="9" y2="14" gradientUnits="userSpaceOnUse" xlink:href="#linearGradient4374"/><linearGradient id="linearGradient4656" x1="4" x2="10" y1="9" y2="14" gradientTransform="translate(-3,-25)" gradientUnits="userSpaceOnUse" xlink:href="#linearGradient4374"/><linearGradient id="linearGradient4653" x1="10" x2="16" y1="9" y2="14" gradientTransform="translate(-3,-27)" gradientUnits="userSpaceOnUse" xlink:href="#linearGradient4382"/><linearGradient id="linearGradient4650" x1="8" x2="16" y1="8" y2="12" gradientTransform="translate(-3,-27)" gradientUnits="userSpaceOnUse" xlink:href="#linearGradient4366"/><linearGradient id="linearGradient4647" x1="8" x2="16" y1="8" y2="12" gradientUnits="userSpaceOnUse" xlink:href="#linearGradient4366"/><linearGradient id="linearGradient4645" x1="10" x2="16" y1="9" y2="14" gradientUnits="userSpaceOnUse" xlink:href="#linearGradient4382"/><linearGradient id="linearGradient4643" x1="4" x2="10" y1="9" y2="14" gradientUnits="userSpaceOnUse" xlink:href="#linearGradient4374"/><linearGradient id="linearGradient4641" x1="10.063" x2="12" y1="8.031" y2="11" gradientTransform="translate(-1,-28)" gradientUnits="userSpaceOnUse" xlink:href="#linearGradient4344"/><linearGradient id="linearGradient4638" x1="8" x2="16" y1="5" y2="9" gradientTransform="translate(-3,-27)" gradientUnits="userSpaceOnUse" xlink:href="#linearGradient4336"/><linearGradient id="linearGradient4634" x1="8" x2="10" y1="8" y2="11" gradientTransform="translate(-1,-28)" gradientUnits="userSpaceOnUse" xlink:href="#linearGradient4354"/><linearGradient id="linearGradient4631" x1="8" x2="10" y1="8" y2="11" gradientTransform="translate(3,-28)" gradientUnits="userSpaceOnUse" xlink:href="#linearGradient4354"/><linearGradient id="linearGradient4628" x1="8" x2="10" y1="8" y2="11" gradientTransform="translate(4,0)" gradientUnits="userSpaceOnUse" xlink:href="#linearGradient4354"/><linearGradient id="linearGradient4626" x1="8" x2="10" y1="8" y2="11" gradientUnits="userSpaceOnUse" xlink:href="#linearGradient4354"/><linearGradient id="linearGradient4624" x1="8" x2="16" y1="5" y2="9" gradientUnits="userSpaceOnUse" xlink:href="#linearGradient4336"/><linearGradient id="linearGradient4622" x1="10.063" x2="12" y1="8.031" y2="11" gradientUnits="userSpaceOnUse" xlink:href="#linearGradient4344"/><linearGradient id="linearGradient4620" x1="8" x2="4" y1="11" y2="5" gradientTransform="translate(-3,-27)" gradientUnits="userSpaceOnUse" xlink:href="#linearGradient4294"/><linearGradient id="linearGradient4617" x1="8" x2="10" y1="6" y2="9" gradientTransform="translate(-5,-28)" gradientUnits="userSpaceOnUse" xlink:href="#linearGradient4320"/><linearGradient id="linearGradient4614" x1="6" x2="10" y1="5" y2="7" gradientTransform="translate(-5,-28)" gradientUnits="userSpaceOnUse" xlink:href="#linearGradient4302"/><linearGradient id="linearGradient4611" x1="10" x2="12" y1="9" y2="12" gradientTransform="translate(-5,-28)" gradientUnits="userSpaceOnUse" xlink:href="#linearGradient4328"/><linearGradient id="linearGradient4608" x1="8" x2="12" y1="8" y2="10" gradientTransform="translate(-5,-28)" gradientUnits="userSpaceOnUse" xlink:href="#linearGradient4310"/><linearGradient id="linearGradient4605" x1="8" x2="12" y1="8" y2="10" gradientUnits="userSpaceOnUse" xlink:href="#linearGradient4310"/><linearGradient id="linearGradient4603" x1="10" x2="12" y1="9" y2="12" gradientUnits="userSpaceOnUse" xlink:href="#linearGradient4328"/><linearGradient id="linearGradient4601" x1="6" x2="10" y1="5" y2="7" gradientUnits="userSpaceOnUse" xlink:href="#linearGradient4302"/><linearGradient id="linearGradient4599" x1="8" x2="10" y1="6" y2="9" gradientUnits="userSpaceOnUse" xlink:href="#linearGradient4320"/><linearGradient id="linearGradient4597" x1="8" x2="4" y1="11" y2="5" gradientUnits="userSpaceOnUse" xlink:href="#linearGradient4294"/><linearGradient id="linearGradient4579" x1="13" x2="8" y1="8" y2="9" gradientTransform="translate(-5,-28)" gradientUnits="userSpaceOnUse" xlink:href="#linearGradient4392-6"/><linearGradient id="linearGradient4576" x1="13" x2="8" y1="8" y2="9" gradientTransform="translate(-3,-25)" gradientUnits="userSpaceOnUse" xlink:href="#linearGradient4392-6"/><linearGradient id="linearGradient4573" x1="13" x2="8" y1="8" y2="9" gradientTransform="translate(0,2)" gradientUnits="userSpaceOnUse" xlink:href="#linearGradient4392-6"/><linearGradient id="linearGradient4571" x1="13" x2="8" y1="8" y2="9" gradientTransform="translate(-2,-1)" gradientUnits="userSpaceOnUse" xlink:href="#linearGradient4392-6"/><linearGradient id="linearGradient4569" x1="8" x2="12" y1="8" y2="10" gradientUnits="userSpaceOnUse" xlink:href="#linearGradient4310"/><linearGradient id="linearGradient4567" x1="10" x2="12" y1="9" y2="12" gradientUnits="userSpaceOnUse" xlink:href="#linearGradient4328"/><linearGradient id="linearGradient4565" x1="6" x2="10" y1="5" y2="7" gradientUnits="userSpaceOnUse" xlink:href="#linearGradient4302"/><linearGradient id="linearGradient4563" x1="8" x2="10" y1="6" y2="9" gradientUnits="userSpaceOnUse" xlink:href="#linearGradient4320"/><linearGradient id="linearGradient4561" x1="8" x2="4" y1="11" y2="5" gradientUnits="userSpaceOnUse" xlink:href="#linearGradient4294"/><linearGradient id="linearGradient4559" x1="8" x2="10" y1="8" y2="11" gradientTransform="translate(4,0)" gradientUnits="userSpaceOnUse" xlink:href="#linearGradient4354"/><linearGradient id="linearGradient4557" x1="8" x2="10" y1="8" y2="11" gradientUnits="userSpaceOnUse" xlink:href="#linearGradient4354"/><linearGradient id="linearGradient4555" x1="8" x2="16" y1="5" y2="9" gradientUnits="userSpaceOnUse" xlink:href="#linearGradient4336"/><linearGradient id="linearGradient4553" x1="10.063" x2="12" y1="8.031" y2="11" gradientUnits="userSpaceOnUse" xlink:href="#linearGradient4344"/><linearGradient id="linearGradient4551" x1="8" x2="16" y1="8" y2="12" gradientUnits="userSpaceOnUse" xlink:href="#linearGradient4366"/><linearGradient id="linearGradient4549" x1="10" x2="16" y1="9" y2="14" gradientUnits="userSpaceOnUse" xlink:href="#linearGradient4382"/><linearGradient id="linearGradient4547" x1="4" x2="10" y1="9" y2="14" gradientUnits="userSpaceOnUse" xlink:href="#linearGradient4374"/><linearGradient id="linearGradient4507" x1="13" x2="8" y1="8" y2="9" gradientTransform="translate(0,2)" gradientUnits="userSpaceOnUse" xlink:href="#linearGradient4392-6"/><linearGradient id="linearGradient4505" x1="13" x2="8" y1="8" y2="9" gradientTransform="translate(-2,-1)" gradientUnits="userSpaceOnUse" xlink:href="#linearGradient4392-6"/><linearGradient id="linearGradient4503" x1="8" x2="12" y1="8" y2="10" gradientUnits="userSpaceOnUse" xlink:href="#linearGradient4310"/><linearGradient id="linearGradient4501" x1="10" x2="12" y1="9" y2="12" gradientUnits="userSpaceOnUse" xlink:href="#linearGradient4328"/><linearGradient id="linearGradient4499" x1="6" x2="10" y1="5" y2="7" gradientUnits="userSpaceOnUse" xlink:href="#linearGradient4302"/><linearGradient id="linearGradient4497" x1="8" x2="10" y1="6" y2="9" gradientUnits="userSpaceOnUse" xlink:href="#linearGradient4320"/><linearGradient id="linearGradient4495" x1="8" x2="4" y1="11" y2="5" gradientUnits="userSpaceOnUse" xlink:href="#linearGradient4294"/><linearGradient id="linearGradient4493" x1="8" x2="10" y1="8" y2="11" gradientTransform="translate(4,0)" gradientUnits="userSpaceOnUse" xlink:href="#linearGradient4354"/><linearGradient id="linearGradient4491" x1="8" x2="10" y1="8" y2="11" gradientUnits="userSpaceOnUse" xlink:href="#linearGradient4354"/><linearGradient id="linearGradient4489" x1="8" x2="16" y1="5" y2="9" gradientUnits="userSpaceOnUse" xlink:href="#linearGradient4336"/><linearGradient id="linearGradient4487" x1="10.063" x2="12" y1="8.031" y2="11" gradientUnits="userSpaceOnUse" xlink:href="#linearGradient4344"/><linearGradient id="linearGradient4485" x1="8" x2="16" y1="8" y2="12" gradientUnits="userSpaceOnUse" xlink:href="#linearGradient4366"/><linearGradient id="linearGradient4483" x1="10" x2="16" y1="9" y2="14" gradientUnits="userSpaceOnUse" xlink:href="#linearGradient4382"/><linearGradient id="linearGradient4481" x1="4" x2="10" y1="9" y2="14" gradientUnits="userSpaceOnUse" xlink:href="#linearGradient4374"/><linearGradient id="linearGradient4438" x1="13" x2="8" y1="8" y2="9" gradientTransform="translate(0,2)" gradientUnits="userSpaceOnUse" xlink:href="#linearGradient4392-6"/><linearGradient id="linearGradient4415" x1="13" x2="8" y1="8" y2="9" gradientTransform="translate(-2,-1)" gradientUnits="userSpaceOnUse" xlink:href="#linearGradient4392-6"/><linearGradient id="linearGradient4392-6"><stop id="stop4394-2" offset="0" style="stop-color:#000;stop-opacity:.17195767"/><stop id="stop4396-8" offset="1" style="stop-color:#000;stop-opacity:1"/></linearGradient><linearGradient id="linearGradient4390-0" x1="13" x2="8" y1="8" y2="9" gradientUnits="userSpaceOnUse" xlink:href="#linearGradient4392-6"/><linearGradient id="linearGradient4380" x1="10" x2="16" y1="9" y2="14" gradientUnits="userSpaceOnUse" xlink:href="#linearGradient4382"/><linearGradient id="linearGradient4372" x1="4" x2="10" y1="9" y2="14" gradientUnits="userSpaceOnUse" xlink:href="#linearGradient4374"/><linearGradient id="linearGradient4364" x1="8" x2="16" y1="8" y2="12" gradientUnits="userSpaceOnUse" xlink:href="#linearGradient4366"/><linearGradient id="linearGradient4362" x1="8" x2="10" y1="8" y2="11" gradientTransform="translate(4,0)" gradientUnits="userSpaceOnUse" xlink:href="#linearGradient4354"/><linearGradient id="linearGradient4352" x1="8" x2="10" y1="8" y2="11" gradientUnits="userSpaceOnUse" xlink:href="#linearGradient4354"/><linearGradient id="linearGradient4350" x1="10.063" x2="12" y1="8.031" y2="11" gradientUnits="userSpaceOnUse" xlink:href="#linearGradient4344"/><linearGradient id="linearGradient4342" x1="8" x2="16" y1="5" y2="9" gradientUnits="userSpaceOnUse" xlink:href="#linearGradient4336"/><linearGradient id="linearGradient4326" x1="10" x2="12" y1="9" y2="12" gradientUnits="userSpaceOnUse" xlink:href="#linearGradient4328"/><linearGradient id="linearGradient4318" x1="8" x2="10" y1="6" y2="9" gradientUnits="userSpaceOnUse" xlink:href="#linearGradient4320"/><linearGradient id="linearGradient4316" x1="8" x2="12" y1="8" y2="10" gradientUnits="userSpaceOnUse" xlink:href="#linearGradient4310"/><linearGradient id="linearGradient4308" x1="6" x2="10" y1="5" y2="7" gradientUnits="userSpaceOnUse" xlink:href="#linearGradient4302"/><linearGradient id="linearGradient4300" x1="8" x2="4" y1="11" y2="5" gradientUnits="userSpaceOnUse" xlink:href="#linearGradient4294"/><linearGradient id="linearGradient4294"><stop id="stop4296" offset="0" style="stop-color:#008e00;stop-opacity:1"/><stop id="stop4298" offset="1" style="stop-color:#00d300;stop-opacity:1"/></linearGradient><linearGradient id="linearGradient4302"><stop id="stop4304" offset="0" style="stop-color:#0fff00;stop-opacity:1"/><stop id="stop4306" offset="1" style="stop-color:#0fba00;stop-opacity:1"/></linearGradient><linearGradient id="linearGradient4310"><stop id="stop4312" offset="0" style="stop-color:#19ff00;stop-opacity:1"/><stop id="stop4314" offset="1" style="stop-color:#19a800;stop-opacity:1"/></linearGradient><linearGradient id="linearGradient4320"><stop id="stop4322" offset="0" style="stop-color:#0f8400;stop-opacity:1"/><stop id="stop4324" offset="1" style="stop-color:#0fba00;stop-opacity:1"/></linearGradient><linearGradient id="linearGradient4328"><stop id="stop4330" offset="0" style="stop-color:#197600;stop-opacity:1"/><stop id="stop4332" offset="1" style="stop-color:#19a800;stop-opacity:1"/></linearGradient><linearGradient id="linearGradient4336"><stop id="stop4338" offset="0" style="stop-color:#ff0;stop-opacity:1"/><stop id="stop4340" offset="1" style="stop-color:#b7b400;stop-opacity:1"/></linearGradient><linearGradient id="linearGradient4344"><stop id="stop4346" offset="0" style="stop-color:#929100;stop-opacity:1"/><stop id="stop4348" offset="1" style="stop-color:#c4c400;stop-opacity:1"/></linearGradient><linearGradient id="linearGradient4354"><stop id="stop4356" offset="0" style="stop-color:#616000;stop-opacity:1"/><stop id="stop4358" offset="1" style="stop-color:#bfbf00;stop-opacity:1"/></linearGradient><linearGradient id="linearGradient4366"><stop id="stop4368" offset="0" style="stop-color:red;stop-opacity:1"/><stop id="stop4370" offset="1" style="stop-color:#630000;stop-opacity:1"/></linearGradient><linearGradient id="linearGradient4374"><stop id="stop4376" offset="0" style="stop-color:#dc0000;stop-opacity:1"/><stop id="stop4378" offset="1" style="stop-color:#9a0000;stop-opacity:1"/></linearGradient><linearGradient id="linearGradient4382"><stop id="stop4384" offset="0" style="stop-color:#370000;stop-opacity:1"/><stop id="stop4386" offset="1" style="stop-color:red;stop-opacity:1"/></linearGradient><linearGradient id="linearGradient3763"><stop id="stop3765" offset="0" style="stop-color:#0080ff;stop-opacity:1"/><stop id="stop3767" offset="1" style="stop-color:#005bb6;stop-opacity:1"/></linearGradient><linearGradient id="linearGradient3769"><stop id="stop3771" offset="0" style="stop-color:#003060;stop-opacity:1"/><stop id="stop3773" offset="1" style="stop-color:#0060c0;stop-opacity:1"/></linearGradient><linearGradient id="linearGradient3775"><stop id="stop3777" offset="0" style="stop-color:#004992;stop-opacity:1"/><stop id="stop3779" offset="1" style="stop-color:#0062c4;stop-opacity:1"/></linearGradient><linearGradient id="linearGradient3781"><stop id="stop3783" offset="0" style="stop-color:#003060;stop-opacity:1"/><stop id="stop3785" offset="1" style="stop-color:#0060c0;stop-opacity:1"/></linearGradient><linearGradient id="linearGradient4886" x1="8.5" x2="2.568" y1="11.63" y2=".548" gradientUnits="userSpaceOnUse" xlink:href="#linearGradient4880"/><linearGradient id="linearGradient4878" x1="6.898" x2="-.668" y1="7.006" y2=".267" gradientUnits="userSpaceOnUse" xlink:href="#linearGradient4872"/><linearGradient id="linearGradient4872"><stop id="stop4874" offset="0" style="stop-color:#000;stop-opacity:1"/><stop id="stop4876" offset="1" style="stop-color:#000;stop-opacity:.47079039"/></linearGradient><linearGradient id="linearGradient4880"><stop id="stop4882" offset="0" style="stop-color:#000;stop-opacity:1"/><stop id="stop4884" offset="1" style="stop-color:#000;stop-opacity:.55326462"/></linearGradient><linearGradient id="linearGradient4193" x1="17.229" x2="-.533" y1="1060.431" y2="1035.26" gradientUnits="userSpaceOnUse" xlink:href="#linearGradient4187"/><linearGradient id="linearGradient4185" x1="13.55" x2="-1.7" y1="1056.498" y2="1032.468" gradientUnits="userSpaceOnUse" xlink:href="#linearGradient4179"/><linearGradient id="linearGradient4179"><stop id="stop4181" offset="0" style="stop-color:#640000;stop-opacity:1"/><stop id="stop4183" offset="1" style="stop-color:#ce0000;stop-opacity:1"/></linearGradient><linearGradient id="linearGradient4187"><stop id="stop4189" offset="0" style="stop-color:#900;stop-opacity:1"/><stop id="stop4191" offset="1" style="stop-color:#fe0000;stop-opacity:1"/></linearGradient></defs><g id="layer1" transform="translate(0,-1035.3622)"><image id="image2998" width="16" height="16" x="1" y="1036.362" xlink:href="../nuvola/16x16/folder_yellow.png"/><g id="layer1-2" transform="translate(16,1036.3622)"><path id="path4840" d="M 3.5,-0.50000049 0.5,2.4999995 0.5,10.5 l 5,5 3,-3 0,-8.0000005 -5,-4.99999999 z" style="fill:#fff;fill-opacity:1;stroke:#000;stroke-linejoin:round;stroke-opacity:1"/><path id="path4870" d="M 5.7629584,2.9216062 13.995756,1.3810437 9.0560775,8.3053812 0.82327977,9.8459437 5.7629584,2.9216062 z" transform="matrix(0.60732696,0.79445199,0,1,0,0)" style="fill:#eaeaea;fill-opacity:1;stroke:none"/><path id="path4834" d="M 3.5,-0.49999991 8.5,4.5000002 8.5,12.5 3.5,7.5000001 3.5,-0.49999991 z" style="fill:#cecece;fill-opacity:1;stroke:none"/><path id="path4836" d="M 3.5,-0.49999991 0.5,2.5 l 0,8 3,-2.9999999 0,-8.00000001 z" style="fill:#9c9c9c;fill-opacity:1;stroke:none"/><path id="path4838" d="m 8.5,4.5000002 -3,2.9999999 0,7.9999999 3,-3 0,-7.9999998 z" style="fill:url(#linearGradient4886);fill-opacity:1;stroke:none"/><path id="rect4321" d="m 0.82327977,1.8459437 8.23279773,-1.54056247 0,7.99999997 -8.23279773,1.5405625 0,-8 z" transform="matrix(0.60732696,0.79445199,0,1,0,0)" style="fill:url(#linearGradient4878);fill-opacity:1;stroke:none"/></g><g id="layer1-1" transform="matrix(0.99990126,0,0,1.0020366,5.0007302,-3.125506)"><path id="path3654" d="m 2.5502525,1039.9125 c -2.72769796,2.7277 -2.72278534,7.1767 0,9.8994 2.7228561,2.7229 7.171797,2.7277 9.8994945,0 2.727698,-2.7277 2.722857,-7.1766 0,-9.8994 -2.7227849,-2.7228 -7.1717968,-2.7277 -9.8994945,0 z m 0.7733981,2.2318 c 0.011068,-0.017 0.032904,-0.028 0.044194,-0.044 l 6.9163884,6.9164 c -1.9425749,1.3209 -4.5899139,1.1111 -6.319767,-0.6188 -1.7147781,-1.7147 -1.9239757,-4.3157 -0.6408155,-6.2534 z m 1.4142135,-1.4143 c 1.940179,-1.3016 4.5533993,-1.1034 6.2755729,0.6188 1.722315,1.7223 1.942827,4.3574 0.640815,6.2976 L 4.7378641,1040.73 z" style="font-size:medium;font-style:normal;font-variant:normal;font-weight:400;font-stretch:normal;text-indent:0;text-align:start;text-decoration:none;line-height:normal;letter-spacing:normal;word-spacing:normal;text-transform:none;direction:ltr;block-progression:tb;writing-mode:lr-tb;text-anchor:start;color:#000;fill:url(#linearGradient4193);fill-opacity:1;stroke:none;stroke-width:1;marker:none;visibility:visible;display:inline;overflow:visible;enable-background:accumulate;font-family:Bitstream Vera Sans;-inkscape-font-specification:Bitstream Vera Sans"/><path id="path4173" d="m 7.5,1037.375 c -1.9222418,-6e-4 -3.8524348,0.7274 -5.3125,2.1875 -2.92013057,2.9201 -2.91514915,7.6787 0,10.5937 2.9152066,2.9153 7.7048771,2.9202 10.625,0 2.920123,-2.9201 2.915212,-7.6785 0,-10.5937 -1.45757,-1.4576 -3.3902582,-2.1869 -5.3125,-2.1875 z m 0,1 c 1.6648848,6e-4 3.328535,0.641 4.59375,1.9062 2.530502,2.5305 2.535273,6.6523 0,9.1876 -2.5352721,2.5352 -6.6569944,2.5305 -9.1875,0 -2.53042153,-2.5304 -2.53526535,-6.6523 0,-9.1876 1.2676325,-1.2676 2.9288652,-1.9068 4.59375,-1.9062 z m 0.5,1.0312 c -1.2244702,-0.1129 -2.4651638,0.1911 -3.53125,0.9063 l -0.5,0.3437 0.40625,0.4376 6.9375,6.9062 0.40625,0.4375 0.34375,-0.5 c 1.433292,-2.1358 1.200038,-5.05 -0.6875,-6.9375 -0.943718,-0.9437 -2.1505298,-1.4808 -3.375,-1.5938 z m -0.09375,1 c 0.9977281,0.091 1.9715445,0.5028 2.75,1.2813 1.394159,1.3941 1.636467,3.4297 0.84375,5.0937 l -5.875,-5.875 c 0.7311158,-0.3483 1.4962225,-0.5718 2.28125,-0.5 z m -4.59375,0.9063 -0.34375,0.5 c 0.1015666,-0.1439 0.058823,-0.1238 -0.0625,0.062 L 2.8125,1042 l 0,0.094 c -1.2647854,2.1066 -1.0070498,4.8367 0.8125,6.6562 1.8959155,1.896 4.7998974,2.141 6.9375,0.6875 l 0.5,-0.3437 -0.4375,-0.4376 -6.90625,-6.9062 -0.40625,-0.4375 z m 0.1875,1.6563 5.9375,5.9062 c -1.671311,0.8182 -3.7195859,0.5617 -5.125,-0.8438 -1.3953469,-1.3952 -1.6113966,-3.3991 -0.8125,-5.0624 z" style="font-size:medium;font-style:normal;font-variant:normal;font-weight:400;font-stretch:normal;text-indent:0;text-align:start;text-decoration:none;line-height:normal;letter-spacing:normal;word-spacing:normal;text-transform:none;direction:ltr;block-progression:tb;writing-mode:lr-tb;text-anchor:start;color:#000;fill:url(#linearGradient4185);fill-opacity:1;stroke:none;stroke-width:1;marker:none;visibility:visible;display:inline;overflow:visible;enable-background:accumulate;font-family:Bitstream Vera Sans;-inkscape-font-specification:Bitstream Vera Sans"/></g></g></svg>