<svg xmlns="http://www.w3.org/2000/svg" xmlns:svg="http://www.w3.org/2000/svg" xmlns:xlink="http://www.w3.org/1999/xlink" id="svg2" width="25" height="17" version="1.1"><defs id="defs4"><linearGradient id="linearGradient4260" x1="1.397" x2="7.613" y1="2.801" y2="6.946" gradientUnits="userSpaceOnUse" xlink:href="#linearGradient4254"/><linearGradient id="linearGradient4239" x1="2.658" x2="6.622" y1="2.26" y2="3.293" gradientUnits="userSpaceOnUse" xlink:href="#linearGradient4233"/><linearGradient id="linearGradient4228" x1="9.641" x2="5.451" y1="1.45" y2="9.198" gradientUnits="userSpaceOnUse" xlink:href="#linearGradient4222"/><linearGradient id="linearGradient4222"><stop id="stop4224" offset="0" style="stop-color:#a38300;stop-opacity:1"/><stop id="stop4226" offset="1" style="stop-color:#6c5600;stop-opacity:1"/></linearGradient><linearGradient id="linearGradient4233"><stop id="stop4235" offset="0" style="stop-color:#32ac00;stop-opacity:1"/><stop id="stop4237" offset="1" style="stop-color:#116200;stop-opacity:1"/></linearGradient><linearGradient id="linearGradient4254"><stop id="stop4256" offset="0" style="stop-color:#166500;stop-opacity:1"/><stop id="stop4258" offset="1" style="stop-color:#3a3000;stop-opacity:1"/></linearGradient><linearGradient id="linearGradient5442"><stop id="stop5444" offset="0" style="stop-color:#3bb265;stop-opacity:1"/><stop id="stop5446" offset="1" style="stop-color:#246c32;stop-opacity:1"/></linearGradient><linearGradient id="linearGradient5450"><stop id="stop5452" offset="0" style="stop-color:#62dd90;stop-opacity:1"/><stop id="stop5454" offset="1" style="stop-color:#041308;stop-opacity:1"/></linearGradient><linearGradient id="linearGradient3368" x1="-1.833" x2="7.829" y1="6.696" y2="16" gradientUnits="userSpaceOnUse" xlink:href="#linearGradient5450"/><linearGradient id="linearGradient3370" x1="3.285" x2="7.125" y1="11.445" y2="15" gradientUnits="userSpaceOnUse" xlink:href="#linearGradient5442"/><clipPath id="clipPath4146"><rect id="rect4148" width="8" height="7" x="0" y="9" style="opacity:.55979644;fill:#0060c0;fill-opacity:1;stroke:none"/></clipPath><linearGradient id="linearGradient3693" x1="4" x2="-6.063" y1="1045.55" y2="1026.268" gradientTransform="translate(2,2)" gradientUnits="userSpaceOnUse" xlink:href="#linearGradient3613"/><linearGradient id="linearGradient3647" x1="-5.095" x2="13.164" y1="1033.352" y2="1058.486" gradientTransform="translate(1.96875,2)" gradientUnits="userSpaceOnUse" xlink:href="#linearGradient3639"/><linearGradient id="linearGradient3633" x1="-5.095" x2="13.164" y1="1033.352" y2="1058.486" gradientTransform="translate(-0.03124999,0)" gradientUnits="userSpaceOnUse" xlink:href="#linearGradient3639"/><linearGradient id="linearGradient3619" x1="4" x2="-6.063" y1="1045.55" y2="1026.268" gradientUnits="userSpaceOnUse" xlink:href="#linearGradient3613"/><linearGradient id="linearGradient3613"><stop id="stop3615" offset="0" style="stop-color:#fff;stop-opacity:1"/><stop id="stop3617" offset="1" style="stop-color:#000;stop-opacity:.72944295"/></linearGradient><linearGradient id="linearGradient3639"><stop id="stop3641" offset="0" style="stop-color:#000;stop-opacity:1"/><stop id="stop3643" offset="1" style="stop-color:#fff;stop-opacity:1"/></linearGradient></defs><g id="layer1" transform="translate(0,-1035.3622)"><image id="image2998" width="16" height="16" x="1" y="1036.362" xlink:href="../nuvola/16x16/folder_yellow.png"/><g id="layer1-3" transform="translate(14,-2)"><rect id="rect3691" width="7" height="10" x="2.5" y="1041.862" style="fill:url(#linearGradient3693);fill-opacity:1;stroke:none"/><path id="path3645" d="m 2,1041.3622 0,0.5 0,10 0,0.5 0.5,0 7,0 0.5,0 0,-0.5 0,-10 0,-0.5 -0.5,0 -7,0 -0.5,0 z m 1,1 6,0 0,9 -6,0 0,-9 z" style="font-size:medium;font-style:normal;font-variant:normal;font-weight:400;font-stretch:normal;text-indent:0;text-align:start;text-decoration:none;line-height:normal;letter-spacing:normal;word-spacing:normal;text-transform:none;direction:ltr;block-progression:tb;writing-mode:lr-tb;text-anchor:start;color:#000;fill:url(#linearGradient3647);fill-opacity:1;stroke:none;stroke-width:1;marker:none;visibility:visible;display:inline;overflow:visible;enable-background:accumulate;font-family:Bitstream Vera Sans;-inkscape-font-specification:Bitstream Vera Sans"/><rect id="rect2830" width="7" height="10" x=".5" y="1039.862" style="fill:url(#linearGradient3619);fill-opacity:1;stroke:none"/><g id="text3606" transform="matrix(0.95890403,0,0,1.0370725,0.10376718,1039.1783)" style="font-size:40px;font-style:normal;font-weight:400;fill:#000;fill-opacity:1;stroke:none;font-family:Bitstream Vera Sans"><path id="path3611" d="m 5.1060718,5.9628425 0,-0.9642527 -1.0428572,0 C 4.0306249,3.7121191 4.083755,3.053575 4.7443307,3.0573877 5.1497912,3.0597279 4.9463843,3.3728736 5.1060718,4.034337 l 1.0428572,0 C 6.018572,3.997887 6.5367413,2.1133648 4.8909824,2.1058316 4.4999161,2.1040415 3.9247097,2.1079872 3.4880137,2.5817867 3.123014,2.9754047 3.1686383,3.7283135 3.0203573,4.9985898 l -1.0428572,0 0,0.9642527 1.0428572,0 C 2.9557912,7.3713527 2.9381392,7.5511525 2.6260642,7.7473342 2.4279358,7.871885 2.1534821,7.920488 1.9775001,7.891348 l 0,0.9642527 c 0.1433927,0.021865 0.2150895,-1.04e-5 0.3193751,-1.04e-5 C 2.8110412,8.8432983 3.2847948,8.6547561 3.5358927,8.3834973 4.040844,7.8380029 4.0632146,5.9628425 4.0632146,5.9628425" style="font-style:italic;font-variant:normal;font-weight:700;font-stretch:normal;fill:red;font-family:URW Chancery L;-inkscape-font-specification:URW Chancery L Bold Italic"/></g><path id="rect3621" d="m 0,1039.3622 0,0.5 0,10 0,0.5 0.5,0 7,0 0.5,0 0,-0.5 0,-10 0,-0.5 -0.5,0 -7,0 -0.5,0 z m 1,1 6,0 0,9 -6,0 0,-9 z" style="font-size:medium;font-style:normal;font-variant:normal;font-weight:400;font-stretch:normal;text-indent:0;text-align:start;text-decoration:none;line-height:normal;letter-spacing:normal;word-spacing:normal;text-transform:none;direction:ltr;block-progression:tb;writing-mode:lr-tb;text-anchor:start;color:#000;fill:url(#linearGradient3633);fill-opacity:1;stroke:none;stroke-width:1;marker:none;visibility:visible;display:inline;overflow:visible;enable-background:accumulate;font-family:Bitstream Vera Sans;-inkscape-font-specification:Bitstream Vera Sans"/></g></g></svg>