<svg xmlns="http://www.w3.org/2000/svg" xmlns:svg="http://www.w3.org/2000/svg" xmlns:xlink="http://www.w3.org/1999/xlink" id="svg2" width="25" height="17" version="1.1"><defs id="defs4"><linearGradient id="linearGradient4260" x1="1.397" x2="7.613" y1="2.801" y2="6.946" gradientUnits="userSpaceOnUse" xlink:href="#linearGradient4254"/><linearGradient id="linearGradient4239" x1="2.658" x2="6.622" y1="2.26" y2="3.293" gradientUnits="userSpaceOnUse" xlink:href="#linearGradient4233"/><linearGradient id="linearGradient4228" x1="9.641" x2="5.451" y1="1.45" y2="9.198" gradientUnits="userSpaceOnUse" xlink:href="#linearGradient4222"/><linearGradient id="linearGradient4222"><stop id="stop4224" offset="0" style="stop-color:#a38300;stop-opacity:1"/><stop id="stop4226" offset="1" style="stop-color:#6c5600;stop-opacity:1"/></linearGradient><linearGradient id="linearGradient4233"><stop id="stop4235" offset="0" style="stop-color:#32ac00;stop-opacity:1"/><stop id="stop4237" offset="1" style="stop-color:#116200;stop-opacity:1"/></linearGradient><linearGradient id="linearGradient4254"><stop id="stop4256" offset="0" style="stop-color:#166500;stop-opacity:1"/><stop id="stop4258" offset="1" style="stop-color:#3a3000;stop-opacity:1"/></linearGradient><linearGradient id="linearGradient4886" x1="8.5" x2="2.568" y1="11.63" y2=".548" gradientUnits="userSpaceOnUse" xlink:href="#linearGradient4880"/><linearGradient id="linearGradient4878" x1="6.898" x2="-.668" y1="7.006" y2=".267" gradientUnits="userSpaceOnUse" xlink:href="#linearGradient4872"/><linearGradient id="linearGradient4872"><stop id="stop4874" offset="0" style="stop-color:#009c31;stop-opacity:1"/><stop id="stop4876" offset="1" style="stop-color:#009c31;stop-opacity:.28498727"/></linearGradient><linearGradient id="linearGradient4880"><stop id="stop4882" offset="0" style="stop-color:#006331;stop-opacity:1"/><stop id="stop4884" offset="1" style="stop-color:#006331;stop-opacity:0"/></linearGradient></defs><g id="layer1" transform="translate(0,-1035.3622)"><image id="image2998" width="16" height="16" x="1" y="1036.362" xlink:href="../nuvola/16x16/folder_yellow_open.png"/><g id="layer1-8" transform="translate(16,1036.3622)"><path id="path4840" d="M 3.5,-0.50000049 0.5,2.4999995 0.5,10.5 l 5,5 3,-3 0,-8.0000005 -5,-4.99999999 z" style="fill:#fff;fill-opacity:1;stroke:#004d00;stroke-linejoin:round;stroke-opacity:1"/><path id="path4870" d="M 5.7629584,2.9216062 13.995756,1.3810437 9.0560775,8.3053812 0.82327977,9.8459437 5.7629584,2.9216062 z" transform="matrix(0.60732696,0.79445199,0,1,0,0)" style="fill:#eaeaea;fill-opacity:1;stroke:none"/><path id="path4834" d="M 3.5,-0.49999991 8.5,4.5000002 8.5,12.5 3.5,7.5000001 3.5,-0.49999991 z" style="fill:#cecece;fill-opacity:1;stroke:none"/><path id="path4836" d="M 3.5,-0.49999991 0.5,2.5 l 0,8 3,-2.9999999 0,-8.00000001 z" style="fill:#9c9c9c;fill-opacity:1;stroke:none"/><path id="rect4321" d="m 0.82327977,1.8459437 8.23279773,-1.54056247 0,7.99999997 -8.23279773,1.5405625 0,-8 z" transform="matrix(0.60732696,0.79445199,0,1,0,0)" style="fill:url(#linearGradient4878);fill-opacity:1;stroke:none"/><path id="path4838" d="m 8.5,4.5000002 -3,2.9999999 0,7.9999999 3,-3 0,-7.9999998 z" style="fill:url(#linearGradient4886);fill-opacity:1;stroke:none"/></g></g></svg>