<svg xmlns="http://www.w3.org/2000/svg" xmlns:svg="http://www.w3.org/2000/svg" xmlns:xlink="http://www.w3.org/1999/xlink" id="svg2" width="16" height="16" version="1.1"><defs id="defs4"><linearGradient id="linearGradient4260" x1="1.397" x2="7.613" y1="2.801" y2="6.946" gradientUnits="userSpaceOnUse" xlink:href="#linearGradient4254"/><linearGradient id="linearGradient4239" x1="2.658" x2="6.622" y1="2.26" y2="3.293" gradientUnits="userSpaceOnUse" xlink:href="#linearGradient4233"/><linearGradient id="linearGradient4228" x1="9.641" x2="5.451" y1="1.45" y2="9.198" gradientUnits="userSpaceOnUse" xlink:href="#linearGradient4222"/><linearGradient id="linearGradient4222"><stop id="stop4224" offset="0" style="stop-color:#a38300;stop-opacity:1"/><stop id="stop4226" offset="1" style="stop-color:#6c5600;stop-opacity:1"/></linearGradient><linearGradient id="linearGradient4233"><stop id="stop4235" offset="0" style="stop-color:#32ac00;stop-opacity:1"/><stop id="stop4237" offset="1" style="stop-color:#116200;stop-opacity:1"/></linearGradient><linearGradient id="linearGradient4254"><stop id="stop4256" offset="0" style="stop-color:#166500;stop-opacity:1"/><stop id="stop4258" offset="1" style="stop-color:#3a3000;stop-opacity:1"/></linearGradient><clipPath id="clipPath4146"><rect id="rect4148" width="8" height="7" x="0" y="9" style="opacity:.55979644;fill:#0060c0;fill-opacity:1;stroke:none"/></clipPath><linearGradient id="linearGradient4777" x1="13" x2="8" y1="8" y2="9" gradientTransform="translate(0,2)" gradientUnits="userSpaceOnUse" xlink:href="#linearGradient4392-6"/><linearGradient id="linearGradient4775" x1="13" x2="8" y1="8" y2="9" gradientTransform="translate(-2,-1)" gradientUnits="userSpaceOnUse" xlink:href="#linearGradient4392-6"/><linearGradient id="linearGradient4773" x1="8" x2="12" y1="8" y2="10" gradientUnits="userSpaceOnUse" xlink:href="#linearGradient4310"/><linearGradient id="linearGradient4771" x1="10" x2="12" y1="9" y2="12" gradientUnits="userSpaceOnUse" xlink:href="#linearGradient4328"/><linearGradient id="linearGradient4769" x1="6" x2="10" y1="5" y2="7" gradientUnits="userSpaceOnUse" xlink:href="#linearGradient4302"/><linearGradient id="linearGradient4767" x1="8" x2="10" y1="6" y2="9" gradientUnits="userSpaceOnUse" xlink:href="#linearGradient4320"/><linearGradient id="linearGradient4765" x1="8" x2="4" y1="11" y2="5" gradientUnits="userSpaceOnUse" xlink:href="#linearGradient4294"/><linearGradient id="linearGradient4763" x1="8" x2="10" y1="8" y2="11" gradientTransform="translate(4,0)" gradientUnits="userSpaceOnUse" xlink:href="#linearGradient4354"/><linearGradient id="linearGradient4761" x1="8" x2="10" y1="8" y2="11" gradientUnits="userSpaceOnUse" xlink:href="#linearGradient4354"/><linearGradient id="linearGradient4759" x1="8" x2="16" y1="5" y2="9" gradientUnits="userSpaceOnUse" xlink:href="#linearGradient4336"/><linearGradient id="linearGradient4757" x1="10.063" x2="12" y1="8.031" y2="11" gradientUnits="userSpaceOnUse" xlink:href="#linearGradient4344"/><linearGradient id="linearGradient4755" x1="8" x2="16" y1="8" y2="12" gradientUnits="userSpaceOnUse" xlink:href="#linearGradient4366"/><linearGradient id="linearGradient4753" x1="10" x2="16" y1="9" y2="14" gradientUnits="userSpaceOnUse" xlink:href="#linearGradient4382"/><linearGradient id="linearGradient4751" x1="4" x2="10" y1="9" y2="14" gradientUnits="userSpaceOnUse" xlink:href="#linearGradient4374"/><linearGradient id="linearGradient4707" x1="13" x2="8" y1="8" y2="9" gradientTransform="translate(0,2)" gradientUnits="userSpaceOnUse" xlink:href="#linearGradient4392-6"/><linearGradient id="linearGradient4705" x1="13" x2="8" y1="8" y2="9" gradientTransform="translate(-2,-1)" gradientUnits="userSpaceOnUse" xlink:href="#linearGradient4392-6"/><linearGradient id="linearGradient4703" x1="8" x2="12" y1="8" y2="10" gradientUnits="userSpaceOnUse" xlink:href="#linearGradient4310"/><linearGradient id="linearGradient4701" x1="10" x2="12" y1="9" y2="12" gradientUnits="userSpaceOnUse" xlink:href="#linearGradient4328"/><linearGradient id="linearGradient4699" x1="6" x2="10" y1="5" y2="7" gradientUnits="userSpaceOnUse" xlink:href="#linearGradient4302"/><linearGradient id="linearGradient4697" x1="8" x2="10" y1="6" y2="9" gradientUnits="userSpaceOnUse" xlink:href="#linearGradient4320"/><linearGradient id="linearGradient4695" x1="8" x2="4" y1="11" y2="5" gradientUnits="userSpaceOnUse" xlink:href="#linearGradient4294"/><linearGradient id="linearGradient4693" x1="8" x2="10" y1="8" y2="11" gradientTransform="translate(4,0)" gradientUnits="userSpaceOnUse" xlink:href="#linearGradient3781"/><linearGradient id="linearGradient4691" x1="8" x2="10" y1="8" y2="11" gradientUnits="userSpaceOnUse" xlink:href="#linearGradient3769"/><linearGradient id="linearGradient4689" x1="8" x2="16" y1="5" y2="9" gradientUnits="userSpaceOnUse" xlink:href="#linearGradient3763"/><linearGradient id="linearGradient4687" x1="10.063" x2="12" y1="8.031" y2="11" gradientUnits="userSpaceOnUse" xlink:href="#linearGradient3775"/><linearGradient id="linearGradient4685" x1="8" x2="16" y1="8" y2="12" gradientUnits="userSpaceOnUse" xlink:href="#linearGradient4366"/><linearGradient id="linearGradient4683" x1="10" x2="16" y1="9" y2="14" gradientUnits="userSpaceOnUse" xlink:href="#linearGradient4382"/><linearGradient id="linearGradient4681" x1="4" x2="10" y1="9" y2="14" gradientUnits="userSpaceOnUse" xlink:href="#linearGradient4374"/><linearGradient id="linearGradient4656" x1="4" x2="10" y1="9" y2="14" gradientTransform="translate(-3,-25)" gradientUnits="userSpaceOnUse" xlink:href="#linearGradient4374"/><linearGradient id="linearGradient4653" x1="10" x2="16" y1="9" y2="14" gradientTransform="translate(-3,-27)" gradientUnits="userSpaceOnUse" xlink:href="#linearGradient4382"/><linearGradient id="linearGradient4650" x1="8" x2="16" y1="8" y2="12" gradientTransform="translate(-3,-27)" gradientUnits="userSpaceOnUse" xlink:href="#linearGradient4366"/><linearGradient id="linearGradient4647" x1="8" x2="16" y1="8" y2="12" gradientUnits="userSpaceOnUse" xlink:href="#linearGradient4366"/><linearGradient id="linearGradient4645" x1="10" x2="16" y1="9" y2="14" gradientUnits="userSpaceOnUse" xlink:href="#linearGradient4382"/><linearGradient id="linearGradient4643" x1="4" x2="10" y1="9" y2="14" gradientUnits="userSpaceOnUse" xlink:href="#linearGradient4374"/><linearGradient id="linearGradient4641" x1="10.063" x2="12" y1="8.031" y2="11" gradientTransform="translate(-1,-28)" gradientUnits="userSpaceOnUse" xlink:href="#linearGradient4344"/><linearGradient id="linearGradient4638" x1="8" x2="16" y1="5" y2="9" gradientTransform="translate(-3,-27)" gradientUnits="userSpaceOnUse" xlink:href="#linearGradient4336"/><linearGradient id="linearGradient4634" x1="8" x2="10" y1="8" y2="11" gradientTransform="translate(-1,-28)" gradientUnits="userSpaceOnUse" xlink:href="#linearGradient4354"/><linearGradient id="linearGradient4631" x1="8" x2="10" y1="8" y2="11" gradientTransform="translate(3,-28)" gradientUnits="userSpaceOnUse" xlink:href="#linearGradient4354"/><linearGradient id="linearGradient4628" x1="8" x2="10" y1="8" y2="11" gradientTransform="translate(4,0)" gradientUnits="userSpaceOnUse" xlink:href="#linearGradient4354"/><linearGradient id="linearGradient4626" x1="8" x2="10" y1="8" y2="11" gradientUnits="userSpaceOnUse" xlink:href="#linearGradient4354"/><linearGradient id="linearGradient4624" x1="8" x2="16" y1="5" y2="9" gradientUnits="userSpaceOnUse" xlink:href="#linearGradient4336"/><linearGradient id="linearGradient4622" x1="10.063" x2="12" y1="8.031" y2="11" gradientUnits="userSpaceOnUse" xlink:href="#linearGradient4344"/><linearGradient id="linearGradient4620" x1="8" x2="4" y1="11" y2="5" gradientTransform="translate(-3,-27)" gradientUnits="userSpaceOnUse" xlink:href="#linearGradient4294"/><linearGradient id="linearGradient4617" x1="8" x2="10" y1="6" y2="9" gradientTransform="translate(-5,-28)" gradientUnits="userSpaceOnUse" xlink:href="#linearGradient4320"/><linearGradient id="linearGradient4614" x1="6" x2="10" y1="5" y2="7" gradientTransform="translate(-5,-28)" gradientUnits="userSpaceOnUse" xlink:href="#linearGradient4302"/><linearGradient id="linearGradient4611" x1="10" x2="12" y1="9" y2="12" gradientTransform="translate(-5,-28)" gradientUnits="userSpaceOnUse" xlink:href="#linearGradient4328"/><linearGradient id="linearGradient4608" x1="8" x2="12" y1="8" y2="10" gradientTransform="translate(-5,-28)" gradientUnits="userSpaceOnUse" xlink:href="#linearGradient4310"/><linearGradient id="linearGradient4605" x1="8" x2="12" y1="8" y2="10" gradientUnits="userSpaceOnUse" xlink:href="#linearGradient4310"/><linearGradient id="linearGradient4603" x1="10" x2="12" y1="9" y2="12" gradientUnits="userSpaceOnUse" xlink:href="#linearGradient4328"/><linearGradient id="linearGradient4601" x1="6" x2="10" y1="5" y2="7" gradientUnits="userSpaceOnUse" xlink:href="#linearGradient4302"/><linearGradient id="linearGradient4599" x1="8" x2="10" y1="6" y2="9" gradientUnits="userSpaceOnUse" xlink:href="#linearGradient4320"/><linearGradient id="linearGradient4597" x1="8" x2="4" y1="11" y2="5" gradientUnits="userSpaceOnUse" xlink:href="#linearGradient4294"/><linearGradient id="linearGradient4579" x1="13" x2="8" y1="8" y2="9" gradientTransform="translate(-5,-28)" gradientUnits="userSpaceOnUse" xlink:href="#linearGradient4392-6"/><linearGradient id="linearGradient4576" x1="13" x2="8" y1="8" y2="9" gradientTransform="translate(-3,-25)" gradientUnits="userSpaceOnUse" xlink:href="#linearGradient4392-6"/><linearGradient id="linearGradient4573" x1="13" x2="8" y1="8" y2="9" gradientTransform="translate(0,2)" gradientUnits="userSpaceOnUse" xlink:href="#linearGradient4392-6"/><linearGradient id="linearGradient4571" x1="13" x2="8" y1="8" y2="9" gradientTransform="translate(-2,-1)" gradientUnits="userSpaceOnUse" xlink:href="#linearGradient4392-6"/><linearGradient id="linearGradient4569" x1="8" x2="12" y1="8" y2="10" gradientUnits="userSpaceOnUse" xlink:href="#linearGradient4310"/><linearGradient id="linearGradient4567" x1="10" x2="12" y1="9" y2="12" gradientUnits="userSpaceOnUse" xlink:href="#linearGradient4328"/><linearGradient id="linearGradient4565" x1="6" x2="10" y1="5" y2="7" gradientUnits="userSpaceOnUse" xlink:href="#linearGradient4302"/><linearGradient id="linearGradient4563" x1="8" x2="10" y1="6" y2="9" gradientUnits="userSpaceOnUse" xlink:href="#linearGradient4320"/><linearGradient id="linearGradient4561" x1="8" x2="4" y1="11" y2="5" gradientUnits="userSpaceOnUse" xlink:href="#linearGradient4294"/><linearGradient id="linearGradient4559" x1="8" x2="10" y1="8" y2="11" gradientTransform="translate(4,0)" gradientUnits="userSpaceOnUse" xlink:href="#linearGradient4354"/><linearGradient id="linearGradient4557" x1="8" x2="10" y1="8" y2="11" gradientUnits="userSpaceOnUse" xlink:href="#linearGradient4354"/><linearGradient id="linearGradient4555" x1="8" x2="16" y1="5" y2="9" gradientUnits="userSpaceOnUse" xlink:href="#linearGradient4336"/><linearGradient id="linearGradient4553" x1="10.063" x2="12" y1="8.031" y2="11" gradientUnits="userSpaceOnUse" xlink:href="#linearGradient4344"/><linearGradient id="linearGradient4551" x1="8" x2="16" y1="8" y2="12" gradientUnits="userSpaceOnUse" xlink:href="#linearGradient4366"/><linearGradient id="linearGradient4549" x1="10" x2="16" y1="9" y2="14" gradientUnits="userSpaceOnUse" xlink:href="#linearGradient4382"/><linearGradient id="linearGradient4547" x1="4" x2="10" y1="9" y2="14" gradientUnits="userSpaceOnUse" xlink:href="#linearGradient4374"/><linearGradient id="linearGradient4507" x1="13" x2="8" y1="8" y2="9" gradientTransform="translate(0,2)" gradientUnits="userSpaceOnUse" xlink:href="#linearGradient4392-6"/><linearGradient id="linearGradient4505" x1="13" x2="8" y1="8" y2="9" gradientTransform="translate(-2,-1)" gradientUnits="userSpaceOnUse" xlink:href="#linearGradient4392-6"/><linearGradient id="linearGradient4503" x1="8" x2="12" y1="8" y2="10" gradientUnits="userSpaceOnUse" xlink:href="#linearGradient4310"/><linearGradient id="linearGradient4501" x1="10" x2="12" y1="9" y2="12" gradientUnits="userSpaceOnUse" xlink:href="#linearGradient4328"/><linearGradient id="linearGradient4499" x1="6" x2="10" y1="5" y2="7" gradientUnits="userSpaceOnUse" xlink:href="#linearGradient4302"/><linearGradient id="linearGradient4497" x1="8" x2="10" y1="6" y2="9" gradientUnits="userSpaceOnUse" xlink:href="#linearGradient4320"/><linearGradient id="linearGradient4495" x1="8" x2="4" y1="11" y2="5" gradientUnits="userSpaceOnUse" xlink:href="#linearGradient4294"/><linearGradient id="linearGradient4493" x1="8" x2="10" y1="8" y2="11" gradientTransform="translate(4,0)" gradientUnits="userSpaceOnUse" xlink:href="#linearGradient4354"/><linearGradient id="linearGradient4491" x1="8" x2="10" y1="8" y2="11" gradientUnits="userSpaceOnUse" xlink:href="#linearGradient4354"/><linearGradient id="linearGradient4489" x1="8" x2="16" y1="5" y2="9" gradientUnits="userSpaceOnUse" xlink:href="#linearGradient4336"/><linearGradient id="linearGradient4487" x1="10.063" x2="12" y1="8.031" y2="11" gradientUnits="userSpaceOnUse" xlink:href="#linearGradient4344"/><linearGradient id="linearGradient4485" x1="8" x2="16" y1="8" y2="12" gradientUnits="userSpaceOnUse" xlink:href="#linearGradient4366"/><linearGradient id="linearGradient4483" x1="10" x2="16" y1="9" y2="14" gradientUnits="userSpaceOnUse" xlink:href="#linearGradient4382"/><linearGradient id="linearGradient4481" x1="4" x2="10" y1="9" y2="14" gradientUnits="userSpaceOnUse" xlink:href="#linearGradient4374"/><linearGradient id="linearGradient4438" x1="13" x2="8" y1="8" y2="9" gradientTransform="translate(0,2)" gradientUnits="userSpaceOnUse" xlink:href="#linearGradient4392-6"/><linearGradient id="linearGradient4415" x1="13" x2="8" y1="8" y2="9" gradientTransform="translate(-2,-1)" gradientUnits="userSpaceOnUse" xlink:href="#linearGradient4392-6"/><linearGradient id="linearGradient4392-6"><stop id="stop4394-2" offset="0" style="stop-color:#000;stop-opacity:.17195767"/><stop id="stop4396-8" offset="1" style="stop-color:#000;stop-opacity:1"/></linearGradient><linearGradient id="linearGradient4390-0" x1="13" x2="8" y1="8" y2="9" gradientUnits="userSpaceOnUse" xlink:href="#linearGradient4392-6"/><linearGradient id="linearGradient4380" x1="10" x2="16" y1="9" y2="14" gradientUnits="userSpaceOnUse" xlink:href="#linearGradient4382"/><linearGradient id="linearGradient4372" x1="4" x2="10" y1="9" y2="14" gradientUnits="userSpaceOnUse" xlink:href="#linearGradient4374"/><linearGradient id="linearGradient4364" x1="8" x2="16" y1="8" y2="12" gradientUnits="userSpaceOnUse" xlink:href="#linearGradient4366"/><linearGradient id="linearGradient4362" x1="8" x2="10" y1="8" y2="11" gradientTransform="translate(4,0)" gradientUnits="userSpaceOnUse" xlink:href="#linearGradient4354"/><linearGradient id="linearGradient4352" x1="8" x2="10" y1="8" y2="11" gradientUnits="userSpaceOnUse" xlink:href="#linearGradient4354"/><linearGradient id="linearGradient4350" x1="10.063" x2="12" y1="8.031" y2="11" gradientUnits="userSpaceOnUse" xlink:href="#linearGradient4344"/><linearGradient id="linearGradient4342" x1="8" x2="16" y1="5" y2="9" gradientUnits="userSpaceOnUse" xlink:href="#linearGradient4336"/><linearGradient id="linearGradient4326" x1="10" x2="12" y1="9" y2="12" gradientUnits="userSpaceOnUse" xlink:href="#linearGradient4328"/><linearGradient id="linearGradient4318" x1="8" x2="10" y1="6" y2="9" gradientUnits="userSpaceOnUse" xlink:href="#linearGradient4320"/><linearGradient id="linearGradient4316" x1="8" x2="12" y1="8" y2="10" gradientUnits="userSpaceOnUse" xlink:href="#linearGradient4310"/><linearGradient id="linearGradient4308" x1="6" x2="10" y1="5" y2="7" gradientUnits="userSpaceOnUse" xlink:href="#linearGradient4302"/><linearGradient id="linearGradient4300" x1="8" x2="4" y1="11" y2="5" gradientUnits="userSpaceOnUse" xlink:href="#linearGradient4294"/><linearGradient id="linearGradient4294"><stop id="stop4296" offset="0" style="stop-color:#008e00;stop-opacity:1"/><stop id="stop4298" offset="1" style="stop-color:#00d300;stop-opacity:1"/></linearGradient><linearGradient id="linearGradient4302"><stop id="stop4304" offset="0" style="stop-color:#0fff00;stop-opacity:1"/><stop id="stop4306" offset="1" style="stop-color:#0fba00;stop-opacity:1"/></linearGradient><linearGradient id="linearGradient4310"><stop id="stop4312" offset="0" style="stop-color:#19ff00;stop-opacity:1"/><stop id="stop4314" offset="1" style="stop-color:#19a800;stop-opacity:1"/></linearGradient><linearGradient id="linearGradient4320"><stop id="stop4322" offset="0" style="stop-color:#0f8400;stop-opacity:1"/><stop id="stop4324" offset="1" style="stop-color:#0fba00;stop-opacity:1"/></linearGradient><linearGradient id="linearGradient4328"><stop id="stop4330" offset="0" style="stop-color:#197600;stop-opacity:1"/><stop id="stop4332" offset="1" style="stop-color:#19a800;stop-opacity:1"/></linearGradient><linearGradient id="linearGradient4336"><stop id="stop4338" offset="0" style="stop-color:#ff0;stop-opacity:1"/><stop id="stop4340" offset="1" style="stop-color:#b7b400;stop-opacity:1"/></linearGradient><linearGradient id="linearGradient4344"><stop id="stop4346" offset="0" style="stop-color:#929100;stop-opacity:1"/><stop id="stop4348" offset="1" style="stop-color:#c4c400;stop-opacity:1"/></linearGradient><linearGradient id="linearGradient4354"><stop id="stop4356" offset="0" style="stop-color:#616000;stop-opacity:1"/><stop id="stop4358" offset="1" style="stop-color:#bfbf00;stop-opacity:1"/></linearGradient><linearGradient id="linearGradient4366"><stop id="stop4368" offset="0" style="stop-color:red;stop-opacity:1"/><stop id="stop4370" offset="1" style="stop-color:#630000;stop-opacity:1"/></linearGradient><linearGradient id="linearGradient4374"><stop id="stop4376" offset="0" style="stop-color:#dc0000;stop-opacity:1"/><stop id="stop4378" offset="1" style="stop-color:#9a0000;stop-opacity:1"/></linearGradient><linearGradient id="linearGradient4382"><stop id="stop4384" offset="0" style="stop-color:#370000;stop-opacity:1"/><stop id="stop4386" offset="1" style="stop-color:red;stop-opacity:1"/></linearGradient><linearGradient id="linearGradient3763"><stop id="stop3765" offset="0" style="stop-color:#0080ff;stop-opacity:1"/><stop id="stop3767" offset="1" style="stop-color:#005bb6;stop-opacity:1"/></linearGradient><linearGradient id="linearGradient3769"><stop id="stop3771" offset="0" style="stop-color:#003060;stop-opacity:1"/><stop id="stop3773" offset="1" style="stop-color:#0060c0;stop-opacity:1"/></linearGradient><linearGradient id="linearGradient3775"><stop id="stop3777" offset="0" style="stop-color:#004992;stop-opacity:1"/><stop id="stop3779" offset="1" style="stop-color:#0062c4;stop-opacity:1"/></linearGradient><linearGradient id="linearGradient3781"><stop id="stop3783" offset="0" style="stop-color:#003060;stop-opacity:1"/><stop id="stop3785" offset="1" style="stop-color:#0060c0;stop-opacity:1"/></linearGradient><linearGradient id="linearGradient4240" x1="6" x2="4" y1="8" y2="5" gradientUnits="userSpaceOnUse" xlink:href="#linearGradient3870"/><linearGradient id="linearGradient3870"><stop id="stop3872" offset="0" style="stop-color:#000;stop-opacity:.52200001"/><stop id="stop3874" offset="1" style="stop-color:#000;stop-opacity:.169"/></linearGradient><linearGradient id="linearGradient4242" x1="8" x2="10" y1="6" y2="9" gradientUnits="userSpaceOnUse" xlink:href="#linearGradient3876"/><linearGradient id="linearGradient3876"><stop id="stop3878" offset="0" style="stop-color:#000;stop-opacity:.47799999"/><stop id="stop3880" offset="1" style="stop-color:#000;stop-opacity:.27000001"/></linearGradient><linearGradient id="linearGradient4244" x1="6" x2="10" y1="5" y2="7" gradientUnits="userSpaceOnUse" xlink:href="#linearGradient3864"/><linearGradient id="linearGradient3864"><stop id="stop3866" offset="0" style="stop-color:#000;stop-opacity:0"/><stop id="stop3868" offset="1" style="stop-color:#000;stop-opacity:.26972011"/></linearGradient><linearGradient id="linearGradient4246" x1="6" x2="4" y1="8" y2="5" gradientUnits="userSpaceOnUse" xlink:href="#linearGradient3870"/><linearGradient id="linearGradient4291"><stop id="stop4293" offset="0" style="stop-color:#000;stop-opacity:.52200001"/><stop id="stop4295" offset="1" style="stop-color:#000;stop-opacity:.169"/></linearGradient><linearGradient id="linearGradient4248" x1="8" x2="10" y1="6" y2="9" gradientUnits="userSpaceOnUse" xlink:href="#linearGradient3876"/><linearGradient id="linearGradient4298"><stop id="stop4300" offset="0" style="stop-color:#000;stop-opacity:.47799999"/><stop id="stop4302" offset="1" style="stop-color:#000;stop-opacity:.27000001"/></linearGradient><linearGradient id="linearGradient4250" x1="6" x2="10" y1="5" y2="7" gradientUnits="userSpaceOnUse" xlink:href="#linearGradient3864"/><linearGradient id="linearGradient4305"><stop id="stop4307" offset="0" style="stop-color:#000;stop-opacity:0"/><stop id="stop4309" offset="1" style="stop-color:#000;stop-opacity:.26972011"/></linearGradient><linearGradient id="linearGradient4252" x1="6" x2="4" y1="8" y2="5" gradientUnits="userSpaceOnUse" xlink:href="#linearGradient3870"/><linearGradient id="linearGradient4312"><stop id="stop4314-7" offset="0" style="stop-color:#000;stop-opacity:.52200001"/><stop id="stop4316" offset="1" style="stop-color:#000;stop-opacity:.169"/></linearGradient><linearGradient id="linearGradient4254-9" x1="8" x2="10" y1="6" y2="9" gradientUnits="userSpaceOnUse" xlink:href="#linearGradient3876"/><linearGradient id="linearGradient4319"><stop id="stop4321" offset="0" style="stop-color:#000;stop-opacity:.47799999"/><stop id="stop4323" offset="1" style="stop-color:#000;stop-opacity:.27000001"/></linearGradient><linearGradient id="linearGradient4256" x1="6" x2="10" y1="5" y2="7" gradientUnits="userSpaceOnUse" xlink:href="#linearGradient3864"/><linearGradient id="linearGradient4326-4"><stop id="stop4328" offset="0" style="stop-color:#000;stop-opacity:0"/><stop id="stop4330-6" offset="1" style="stop-color:#000;stop-opacity:.26972011"/></linearGradient></defs><g id="layer1" transform="translate(-1,-1036.3622)"><image id="image2998" width="16" height="16" x="1" y="1036.362" xlink:href="../nuvola/16x16/folder_yellow_open.png"/><g id="g4209" transform="translate(4,1039.3622)"><path id="path4080" d="m 6.5,5.5 -2,1 0,2 2,1 0,2 2,1 2,-1 0,-2 2,-1 0,-2 -2,-1 -2,1 -2,-1 z" style="fill:none;stroke:#000;stroke-opacity:1"/><g id="g4180"><g id="g4032"><g id="g3882" transform="translate(-0.2419352,-4.2903229)"><g id="g3884" transform="translate(-2,-1)"><path id="path3886" d="m 8.7419355,10.790323 -2,1 0,2 2,1 1.9999995,-1 0,-2 -1.9999995,-1 z" style="fill:#0f0;fill-opacity:1;stroke:none"/></g></g><g id="g3847" transform="translate(0.5,1.5)"><g id="g3849" transform="translate(-2,-1)"><path id="path3851" d="M 4,5 4,7 6,8 6,6 4,5 z" transform="translate(2,1)" style="fill:url(#linearGradient4240);fill-opacity:1;stroke:none"/><path id="path3853" d="M 10,6 8,7 8,9 10,8 10,6 z" style="fill:url(#linearGradient4242);fill-opacity:1;stroke:none"/><path id="path3855" d="M 10,6 8,7 6,6 8,5 10,6 z" style="fill:url(#linearGradient4244);fill-opacity:1;stroke:none"/></g></g></g><g id="g4042" transform="translate(-1,0)"><g id="g3935" transform="translate(4.7580647,-4.290323)" style="fill:#0080ff;fill-opacity:1"><g id="g3937" transform="translate(-2,-1)" style="fill:#0080ff;fill-opacity:1"><path id="path3939" d="m 8.7419355,10.790323 -2,1 0,2 2,1 1.9999995,-1 0,-2 -1.9999995,-1 z" style="fill:#0080ff;fill-opacity:1;stroke:none"/></g></g><g id="g3941" transform="translate(5.5,1.5)"><g id="g3943" transform="translate(-2,-1)"><path id="path3945" d="M 4,5 4,7 6,8 6,6 4,5 z" transform="translate(2,1)" style="fill:url(#linearGradient4246);fill-opacity:1;stroke:none"/><path id="path3947" d="M 10,6 8,7 8,9 10,8 10,6 z" style="fill:url(#linearGradient4248);fill-opacity:1;stroke:none"/><path id="path3949" d="M 10,6 8,7 6,6 8,5 10,6 z" style="fill:url(#linearGradient4250);fill-opacity:1;stroke:none"/></g></g></g><g id="g4052" transform="translate(-0.3225806,-1.2741937)"><g id="g3965" transform="translate(2.0806454,-0.0161293)" style="fill:red;fill-opacity:1"><g id="g3967" transform="translate(-2,-1)" style="fill:red;fill-opacity:1"><path id="path3969" d="m 8.7419355,10.790323 -2,1 0,2 2,1 1.9999995,-1 0,-2 -1.9999995,-1 z" style="fill:red;fill-opacity:1;stroke:none"/></g></g><g id="g3971" transform="translate(2.8225806,5.7741937)"><g id="g3973" transform="translate(-2,-1)"><path id="path3975" d="M 4,5 4,7 6,8 6,6 4,5 z" transform="translate(2,1)" style="fill:url(#linearGradient4252);fill-opacity:1;stroke:none"/><path id="path3977" d="M 10,6 8,7 8,9 10,8 10,6 z" style="fill:url(#linearGradient4254-9);fill-opacity:1;stroke:none"/><path id="path3979" d="M 10,6 8,7 6,6 8,5 10,6 z" style="fill:url(#linearGradient4256);fill-opacity:1;stroke:none"/></g></g></g></g></g></g></svg>