<svg xmlns="http://www.w3.org/2000/svg" xmlns:svg="http://www.w3.org/2000/svg" id="SVGRoot" width="16" height="16" version="1.1" viewBox="0 0 16 16"><metadata id="metadata5290"/><g id="layer1"><g id="layer1-7" transform="translate(2,2)"><path id="path4003" d="M 7 3 A 4 4 0 0 0 3 7 A 4 4 0 0 0 6.1054688 10.894531 A 4 4 0 0 0 10 14 A 4 4 0 0 0 14 10 A 4 4 0 0 0 10.892578 6.1074219 A 4 4 0 0 0 7 3 z M 10.822266 8.1796875 A 2 2 0 0 1 12 10 A 2 2 0 0 1 10 12 A 2 2 0 0 1 8.1777344 10.818359 A 4 4 0 0 0 10.822266 8.1796875 z" transform="translate(-2,-2)" style="opacity:1;fill:#a00;fill-opacity:1;stroke:none;stroke-width:1.14285719;stroke-miterlimit:4;stroke-dasharray:none;stroke-opacity:1"/></g></g></svg>