<svg xmlns="http://www.w3.org/2000/svg" xmlns:svg="http://www.w3.org/2000/svg" id="SVGRoot" width="16" height="16" version="1.1" viewBox="0 0 16 16"><metadata id="metadata5290"/><g id="layer1"><path id="path4042" d="M 7 3 A 4 4 0 0 0 3 7 A 4 4 0 0 0 6.1054688 10.894531 A 4 4 0 0 0 10 14 A 4 4 0 0 0 14 10 A 4 4 0 0 0 10.892578 6.1074219 A 4 4 0 0 0 7 3 z M 7 5 A 2 2 0 0 1 9 7 A 2 2 0 0 1 7 9 A 2 2 0 0 1 5 7 A 2 2 0 0 1 7 5 z" style="opacity:1;fill:#a00;fill-opacity:1;stroke:none;stroke-width:1.14285719;stroke-miterlimit:4;stroke-dasharray:none;stroke-opacity:1"/></g></svg>