<svg xmlns="http://www.w3.org/2000/svg" xmlns:svg="http://www.w3.org/2000/svg" id="SVGRoot" width="16" height="16" version="1.1" viewBox="0 0 16 16"><metadata id="metadata5290"/><g id="layer1"><path id="path821-4" d="M 8,4 A 4,4 0 0 0 4,8 4,4 0 0 0 8,12 4,4 0 0 0 12,8 4,4 0 0 0 8,4 Z M 8,6 A 2,2 0 0 1 10,8 2,2 0 0 1 8,10 2,2 0 0 1 6,8 2,2 0 0 1 8,6 Z" style="opacity:1;fill:#a00;fill-opacity:1;stroke:none;stroke-width:1.14285719;stroke-miterlimit:4;stroke-dasharray:none;stroke-opacity:1"/><rect id="rect4512" width="1.67" height="12.472" x="10.479" y="-6.236" transform="rotate(45)" style="opacity:1;fill:#000;fill-opacity:1;stroke:none;stroke-width:1.66991985;stroke-miterlimit:4;stroke-dasharray:none;stroke-opacity:1"/></g></svg>