<svg xmlns="http://www.w3.org/2000/svg" xmlns:svg="http://www.w3.org/2000/svg" id="SVGRoot" width="16" height="16" version="1.1" viewBox="0 0 16 16"><metadata id="metadata5290"/><g id="layer1"><circle id="path821" cx="11" cy="11" r="4" style="opacity:1;fill:#a00;fill-opacity:1;stroke:none;stroke-width:1.14285719;stroke-miterlimit:4;stroke-dasharray:none;stroke-opacity:1"/><path id="path821-7" d="M 5 1 A 4 4 0 0 0 1 5 A 4 4 0 0 0 5 9 A 4 4 0 0 0 9 5 A 4 4 0 0 0 5 1 z M 5 3 A 2 2 0 0 1 7 5 A 2 2 0 0 1 5 7 A 2 2 0 0 1 3 5 A 2 2 0 0 1 5 3 z" style="opacity:1;fill:#a00;fill-opacity:1;stroke:none;stroke-width:1.14285719;stroke-miterlimit:4;stroke-dasharray:none;stroke-opacity:1"/></g></svg>