<svg xmlns="http://www.w3.org/2000/svg" xmlns:svg="http://www.w3.org/2000/svg" id="SVGRoot" width="16" height="16" version="1.1" viewBox="0 0 16 16"><metadata id="metadata5290"/><g id="layer1"><path style="opacity:1;fill:#7f7f7f;fill-opacity:1;stroke:none;stroke-width:1.14285719;stroke-miterlimit:4;stroke-dasharray:none;stroke-opacity:1" id="path821" d="M 8 4 A 4 4 0 0 0 4 8 A 4 4 0 0 0 8 12 A 4 4 0 0 0 12 8 A 4 4 0 0 0 8 4 z M 8 6 A 2 2 0 0 1 10 8 A 2 2 0 0 1 8 10 A 2 2 0 0 1 6 8 A 2 2 0 0 1 8 6 z"/></g></svg>