<svg xmlns="http://www.w3.org/2000/svg" xmlns:svg="http://www.w3.org/2000/svg" id="svg4819" width="16" height="16" version="1.1" viewBox="0 0 16 16"><metadata id="metadata4824"/><g id="layer1"><path id="circle842" d="M 8 2 A 6 6 0 0 0 2 8 A 6 6 0 0 0 3.1132812 11.472656 L 1 13.585938 L 2.4140625 15 L 4.5292969 12.884766 A 6 6 0 0 0 8 14 A 6 6 0 0 0 14 8 L 12 8 A 4 4 0 0 1 8 12 A 4 4 0 0 1 4 8 A 4 4 0 0 1 8 4 L 8 2 z" style="opacity:1;fill:#d4aa00;fill-opacity:1;stroke:none;stroke-width:1.99999976;stroke-miterlimit:4;stroke-dasharray:none;stroke-opacity:1"/><path id="path838" d="M 13.585938 1 L 9.2910156 5.2949219 A 3 3 0 0 0 8 5 A 3 3 0 0 0 5 8 A 3 3 0 0 0 8 11 A 3 3 0 0 0 11 8 A 3 3 0 0 0 10.705078 6.7089844 L 15 2.4140625 L 13.585938 1 z" style="opacity:1;fill:green;fill-opacity:1;stroke:none;stroke-width:1;stroke-miterlimit:4;stroke-dasharray:none;stroke-opacity:1"/></g></svg>