<svg xmlns="http://www.w3.org/2000/svg" xmlns:svg="http://www.w3.org/2000/svg" id="SVGRoot" width="16" height="16" version="1.1" viewBox="0 0 16 16"><metadata id="metadata5290"/><g id="layer1"><path id="path5895" d="M 2.7011719,2.0703125 A 8,8 0 0 0 1,7 a 8,8 0 0 0 8,8 8,8 0 0 0 4.964844,-1.736328 l -1.238282,-1.5625 A 6,6 0 0 1 9,13 6,6 0 0 1 3,7 6,6 0 0 1 4.2792969,3.3066406 Z" style="opacity:1;fill:#d4aa00;fill-opacity:1;stroke:none;stroke-width:1;stroke-miterlimit:4;stroke-dasharray:none;stroke-opacity:1"/><path id="path5852" d="M 9.0000781,1 V 2.1308594 A 4,4 0 0 0 7.1485156,3.1992188 L 6.17,2.6347656 5.17,4.3652344 6.1485156,4.9296875 A 4,4 0 0 0 6.0000781,6 4,4 0 0 0 6.1465625,7.0703125 L 5.17,7.6347656 6.17,9.365234 7.1465625,8.800781 A 4,4 0 0 0 9.0000781,9.867188 V 11 H 11.000078 V 9.869141 a 4,4 0 0 0 1.851562,-1.06836 l 0.978516,0.564453 1,-1.7304684 L 13.85164,7.0703125 A 4,4 0 0 0 14.000078,6 4,4 0 0 0 13.853594,4.9296875 l 0.976562,-0.5644531 -1,-1.7304688 -0.976562,0.5644532 A 4,4 0 0 0 11.000078,2.1328125 V 1 Z m 0.9999999,4 a 1,1 0 0 1 1,1 1,1 0 0 1 -1,1 A 1,1 0 0 1 9.0000781,6 1,1 0 0 1 10.000078,5 Z" style="opacity:1;fill:#666;fill-opacity:1;stroke:none;stroke-width:1.14285719;stroke-miterlimit:4;stroke-dasharray:none;stroke-opacity:1"/><path style="opacity:1;fill:#a00;fill-opacity:1;stroke:none;stroke-width:1;stroke-miterlimit:4;stroke-dasharray:none;stroke-opacity:1" id="rect5904" d="M 4.7071067,9.8786796 6.1213203,11.292893 3.2928933,14.12132 1.8786796,12.707107 Z M 4.9999996,15 H 1 l -6.4e-7,-4.000001 z"/></g></svg>